<?xml version="1.0" encoding="utf-8"?>
<!-- Generator: Adobe Illustrator 16.0.0, SVG Export Plug-In . SVG Version: 6.00 Build 0)  -->
<!DOCTYPE svg PUBLIC "-//W3C//DTD SVG 1.1//EN" "http://www.w3.org/Graphics/SVG/1.1/DTD/svg11.dtd">
<svg version="1.1" id="Capa_1" xmlns="http://www.w3.org/2000/svg" xmlns:xlink="http://www.w3.org/1999/xlink" x="0px" y="0px"
	 width="612px" height="441.865px" viewBox="0 175.067 612 441.865" enable-background="new 0 175.067 612 441.865"
	 xml:space="preserve">
<g>
	<path d="M578.035,175.067H33.963C15.236,175.067,0,190.302,0,209.029v373.94c0,18.727,15.236,33.963,33.963,33.963h544.072
		c18.729,0,33.965-15.236,33.965-33.963v-373.94C612,190.302,596.764,175.067,578.035,175.067z M33.963,200.046h544.072
		c4.955,0,8.985,4.03,8.985,8.982v38.467H24.979v-38.467C24.979,204.076,29.009,200.046,33.963,200.046z M578.035,591.954H33.963
		c-4.953,0-8.984-4.031-8.984-8.984V272.476h562.041V582.97C587.021,587.925,582.988,591.954,578.035,591.954z"/>
	<path d="M234.947,352.823c-4.877-4.877-12.786-4.876-17.663,0.001l-56.394,56.394c-2.342,2.342-3.658,5.52-3.658,8.832
		c0,3.312,1.316,6.488,3.658,8.831l56.394,56.393c2.439,2.439,5.635,3.658,8.832,3.658s6.394-1.22,8.832-3.658
		c4.877-4.877,4.877-12.785-0.001-17.664l-47.562-47.562l47.563-47.563C239.825,365.61,239.825,357.7,234.947,352.823z"/>
	<path d="M385.825,352.824c-4.878-4.877-12.784-4.877-17.665-0.001c-4.877,4.877-4.877,12.786,0,17.665l47.562,47.563
		l-47.562,47.562c-4.877,4.877-4.877,12.785,0,17.664c2.439,2.439,5.636,3.658,8.832,3.658s6.393-1.221,8.831-3.658l56.395-56.393
		c2.342-2.344,3.658-5.52,3.658-8.832s-1.316-6.489-3.658-8.831L385.825,352.824z"/>
	<path d="M336.714,350.507c-6.159-3.111-13.67-0.641-16.781,5.517l-59.056,116.893c-3.11,6.156-0.641,13.669,5.517,16.78
		c1.806,0.912,3.728,1.344,5.622,1.344c4.562,0,8.959-2.509,11.159-6.859l59.056-116.893
		C345.339,361.131,342.87,353.618,336.714,350.507z"/>
</g>
</svg>
